<svg width="20" height="20" viewBox="0 0 20 20" fill="none" xmlns="http://www.w3.org/2000/svg">
<g clip-path="url(#clip0_103_106)">
<path d="M9.9999 13.3333C9.80519 13.3337 9.6165 13.2658 9.46657 13.1416L4.46657 8.97495C4.29639 8.8335 4.18937 8.63024 4.16905 8.40988C4.14874 8.18953 4.21679 7.97013 4.35824 7.79994C4.49969 7.62976 4.70295 7.52274 4.9233 7.50243C5.14366 7.48211 5.36306 7.55016 5.53324 7.69161L9.9999 11.4249L14.4666 7.82495C14.5518 7.75572 14.6499 7.70403 14.7552 7.67284C14.8605 7.64164 14.9709 7.63157 15.0801 7.64318C15.1892 7.6548 15.2951 7.68788 15.3914 7.74052C15.4878 7.79317 15.5728 7.86434 15.6416 7.94994C15.7179 8.03563 15.7757 8.13615 15.8113 8.24521C15.847 8.35427 15.8598 8.46952 15.8488 8.58374C15.8379 8.69796 15.8034 8.80869 15.7477 8.90899C15.692 9.00928 15.6161 9.09699 15.5249 9.16661L10.5249 13.1916C10.3707 13.2962 10.1858 13.3461 9.9999 13.3333Z" fill="#F2F2F2"/>
</g>
<defs>
<clipPath id="clip0_103_106">
<rect width="20" height="20" fill="white"/>
</clipPath>
</defs>
</svg>
