<svg width="102" height="24" viewBox="0 0 102 24" fill="none" xmlns="http://www.w3.org/2000/svg">
<g clip-path="url(#clip0_103_56)">
<path fill-rule="evenodd" clip-rule="evenodd" d="M6.00888 1.5V24H0V1.5H6.00888Z" fill="#F2F2F2"/>
<path fill-rule="evenodd" clip-rule="evenodd" d="M9.01343 1.5H21.7823C25.9306 1.5 29.2934 4.85786 29.2934 9C29.2934 13.1422 25.9306 16.5 21.7823 16.5H15.0223V24H9.01343V1.5ZM15.0223 10.5H21.7823C22.612 10.5 23.2845 9.82842 23.2845 9C23.2845 8.17158 22.612 7.5 21.7823 7.5H15.0223V10.5Z" fill="#F2F2F2"/>
<path fill-rule="evenodd" clip-rule="evenodd" d="M51.8268 1.5V13.125C51.8268 15.8174 54.0126 18 56.709 18C59.4054 18 61.5913 15.8174 61.5913 13.125V1.5H67.6003V13.125C67.6003 19.1311 62.7241 24 56.709 24C50.694 24 45.8179 19.1311 45.8179 13.125V1.5H51.8268Z" fill="#F2F2F2"/>
<path fill-rule="evenodd" clip-rule="evenodd" d="M31.5467 12C31.5467 6.201 36.2547 1.5 42.0623 1.5H43.5645V7.5H42.0623C39.5733 7.5 37.5556 9.51474 37.5556 12V12.75C37.5556 18.9632 32.5113 24 26.2889 24H25.5378V18H26.2889C29.1927 18 31.5467 15.6495 31.5467 12.75V12Z" fill="#F2F2F2"/>
<path d="M101.4 2.25C101.4 3.49264 100.391 4.5 99.1463 4.5C97.9019 4.5 96.8933 3.49264 96.8933 2.25C96.8933 1.00736 97.9019 0 99.1463 0C100.391 0 101.4 1.00736 101.4 2.25Z" fill="#F2F2F2"/>
<path d="M74.0521 24L76.9195 12.0109L79.0513 19.2236C80.3221 23.5255 86.4247 23.5255 87.6961 19.2236L89.8273 12.0109L92.6947 24H98.8723L94.3639 5.14772C93.2917 0.664492 86.9647 0.498497 85.6579 4.91937L83.3737 12.65L81.0889 4.91938C79.7827 0.498523 73.4551 0.664468 72.3829 5.14772L67.8745 24H74.0521Z" fill="#F2F2F2"/>
</g>
<defs>
<clipPath id="clip0_103_56">
<rect width="101.4" height="24" fill="white"/>
</clipPath>
</defs>
</svg>
